<svg width="111" height="43" viewBox="0 0 111 43" fill="none" xmlns="http://www.w3.org/2000/svg">
<path d="M3.83591 42.53C2.73591 42.53 1.84592 42.15 1.17592 41.38C0.505923 40.61 0.125914 39.53 0.0259137 38.13C-0.0740863 36.73 0.115911 35.17 0.585911 33.44C0.865911 32.42 1.19591 31.38 1.58591 30.34C1.97591 29.3 2.35592 28.46 2.70592 27.83H6.24591C5.96591 28.5 5.66592 29.28 5.32592 30.16C4.99592 31.05 4.72591 31.92 4.52591 32.79C3.93591 34.96 3.62592 36.59 3.60592 37.69C3.58592 38.79 3.87592 39.34 4.46592 39.34C4.97592 39.34 5.49591 38.85 6.02591 37.86C6.55591 36.88 7.07591 35.46 7.58591 33.61C8.21591 31.41 8.46592 29.47 8.32592 27.79C8.18592 26.12 7.82592 24.14 7.23592 21.86C6.84592 20.32 6.55592 19 6.37592 17.87C6.19592 16.75 6.12591 15.5 6.16591 14.12C6.20591 12.74 6.46592 11.21 6.93592 9.50999C7.48592 7.45999 8.13591 5.73 8.88591 4.31C9.63591 2.89 10.4959 1.82 11.4859 1.09C12.4659 0.359996 13.5159 0 14.6159 0C15.7559 0 16.6659 0.379994 17.3359 1.14999C18.0059 1.91999 18.3959 2.99999 18.5159 4.39999C18.6359 5.79999 18.4559 7.36 17.9859 9.09C17.7059 10.07 17.3959 11.05 17.0459 12.01C16.6959 12.98 16.3559 13.71 16.0459 14.22H12.5059C12.7759 13.63 13.0659 12.93 13.3659 12.12C13.6659 11.31 13.8859 10.52 14.0459 9.73C14.5959 7.6 14.8859 5.98 14.9059 4.86C14.9259 3.74 14.6359 3.17999 14.0459 3.17999C13.5359 3.17999 13.0259 3.64 12.5059 4.55C11.9959 5.46 11.4859 6.76999 10.9659 8.48999C10.3759 10.53 10.1359 12.33 10.2559 13.87C10.3759 15.42 10.7059 17.25 11.2559 19.36C11.6859 20.99 11.9959 22.38 12.1759 23.55C12.3559 24.72 12.4259 26.05 12.3859 27.55C12.3459 29.05 12.0859 30.68 11.6159 32.43C11.0659 34.6 10.4059 36.44 9.63591 37.97C8.86592 39.49 7.99592 40.63 7.00592 41.38C6.04592 42.15 4.97591 42.53 3.83591 42.53Z" fill="#FFFFE8"/>
<path d="M12.7559 41.93L22.8559 0.589966H26.9859L16.7659 37.09H17.4158L25.9758 13.29H30.0459L25.9158 37.09H26.5659L35.8959 0.589966H40.0858L27.9158 41.93H22.2458L26.2059 21.08H25.8559L18.5959 41.93H12.7559Z" fill="#FFFFE8"/>
<path d="M32.186 41.93L43.286 0.589966H47.126L36.026 41.93H32.186Z" fill="#FFFFE8"/>
<path d="M39.626 41.93L50.726 0.589966H59.526L58.586 4.18997H53.626L49.376 20.13H53.276L52.336 23.67H48.376L43.476 41.92H39.626V41.93Z" fill="#FFFFE8"/>
<path d="M54.3857 41.93L64.5457 4.18997H60.6458L61.5857 0.589966H73.2157L72.2757 4.18997H68.3757L58.2157 41.93H54.3857Z" fill="#FFFFE8"/>
<path d="M64.2461 41.93L75.3461 0.589966H80.0161L74.6461 35.55H75.2961L82.8561 0.589966H86.9861L75.8861 41.93H71.1661L76.5961 6.96997H75.9461L68.3861 41.93H64.2461Z" fill="#FFFFE8"/>
<path d="M79.4858 41.93L90.5858 0.589966H99.6258L98.6858 4.18997H93.4858L89.4658 19.01H93.5958L92.6558 22.61H88.5258L84.2758 38.32H89.4758L88.5358 41.92H79.4858V41.93Z" fill="#FFFFE8"/>
<path d="M90.9458 41.93L102.046 0.589966H105.476C106.896 0.589966 108.026 1.02997 108.876 1.91997C109.726 2.80997 110.236 4.04997 110.416 5.63997C110.596 7.22997 110.386 9.08997 109.796 11.22C108.886 14.65 107.726 17.13 106.316 18.66C104.896 20.2 103.026 20.96 100.706 20.96H99.2258L100.056 18.01H101.536C102.406 18.01 103.166 17.45 103.836 16.33C104.506 15.21 105.156 13.45 105.786 11.04C106.416 8.55996 106.706 6.76997 106.676 5.66997C106.636 4.56997 106.186 4.01996 105.316 4.01996H105.016L94.7958 41.93H90.9458ZM99.5658 41.93C98.9358 41.93 98.5158 41.72 98.2958 41.31C98.0758 40.9 98.0858 40.24 98.3258 39.33L101.516 27.52C101.786 26.5 101.786 25.74 101.486 25.25C101.186 24.76 100.606 24.51 99.7458 24.51H98.2658L99.0958 21.56H100.986C102.796 21.56 104.086 22.13 104.856 23.27C105.626 24.41 105.756 25.97 105.236 27.94L102.226 39.22C102.026 39.85 101.946 40.37 101.986 40.78C102.026 41.19 102.186 41.46 102.456 41.58L102.336 41.93H99.5658Z" fill="#FFFFE8"/>
</svg>
